COMMAND:
ffmpeg -y -hide_banner -f concat -safe 0 -i /Volumes/AIGC/AI-CUT/projects/0622/结果/文案8/auto-edit/edit/concat_segments.txt -c copy /Volumes/AIGC/AI-CUT/projects/0622/结果/文案8/auto-edit/edit/visual_base_no_subs.mp4

STDOUT:


STDERR:
[mov,mp4,m4a,3gp,3g2,mj2 @ 0x905054280] Auto-inserting h264_mp4toannexb bitstream filter
Input #0, concat, from '/Volumes/AIGC/AI-CUT/projects/0622/结果/文案8/auto-edit/edit/concat_segments.txt':
  Duration: N/A, start: 0.000000, bitrate: 2807 kb/s
  Stream #0:0(und): Video: h264 (High) (avc1 / 0x31637661), yuv420p(tv, bt709, progressive), 1280x720 [SAR 1:1 DAR 16:9], 2807 kb/s, 30 fps, 30 tbr, 15360 tbn
    Metadata:
      handler_name    : VideoHandler
      vendor_id       : [0][0][0][0]
      encoder         : Lavc62.11.100 libx264
Stream mapping:
  Stream #0:0 -> #0:0 (copy)
Output #0, mp4, to '/Volumes/AIGC/AI-CUT/projects/0622/结果/文案8/auto-edit/edit/visual_base_no_subs.mp4':
  Metadata:
    encoder         : Lavf62.3.100
  Stream #0:0(und): Video: h264 (High) (avc1 / 0x31637661), yuv420p(tv, bt709, progressive), 1280x720 [SAR 1:1 DAR 16:9], q=2-31, 2807 kb/s, 30 fps, 30 tbr, 15360 tbn
    Metadata:
      handler_name    : VideoHandler
      vendor_id       : [0][0][0][0]
      encoder         : Lavc62.11.100 libx264
Press [q] to stop, [?] for help
[mov,mp4,m4a,3gp,3g2,mj2 @ 0x905054280] Auto-inserting h264_mp4toannexb bitstream filter
    Last message repeated 8 times
[out#0/mp4 @ 0x905004a80] video:12253KiB audio:0KiB subtitle:0KiB other streams:0KiB global headers:0KiB muxing overhead: 0.100747%
frame= 1010 fps=0.0 q=-1.0 Lsize=   12266KiB time=00:00:33.60 bitrate=2990.4kbits/s speed= 333x elapsed=0:00:00.10    
